<svg width="968" height="293" viewBox="0 0 968 293" fill="none" xmlns="http://www.w3.org/2000/svg">
  <defs>
    <linearGradient id="pinGradient" x1="59" y1="36" x2="238" y2="238" gradientUnits="userSpaceOnUse">
      <stop offset="0%" stop-color="#4285F4"/>
      <stop offset="55%" stop-color="#34A853"/>
      <stop offset="78%" stop-color="#8ABF24"/>
      <stop offset="100%" stop-color="#FBBC05"/>
    </linearGradient>

    <linearGradient id="lineGradient" x1="316" y1="233" x2="968" y2="233" gradientUnits="userSpaceOnUse">
      <stop offset="0%" stop-color="#34A853"/>
      <stop offset="70%" stop-color="#6C8E3A"/>
      <stop offset="100%" stop-color="#34A853"/>
    </linearGradient>

    <filter id="softShadow" x="195" y="145" width="130" height="98" filterUnits="userSpaceOnUse">
      <feDropShadow dx="0" dy="3" stdDeviation="4" flood-color="#000000" flood-opacity="0.10"/>
    </filter>
  </defs>

  <path d="M142 30
           C84 30 38 76 38 134
           C38 201 104 250 134 277
           C139 281 146 281 151 277
           C181 250 247 201 247 134
           C247 76 201 30 142 30Z"
        fill="white"
        stroke="url(#pinGradient)"
        stroke-width="14"
        stroke-linejoin="round"/>

  <circle cx="142" cy="124" r="39" fill="white" stroke="#4285F4" stroke-width="10"/>
  <circle cx="142" cy="124" r="18" fill="white" stroke="#34A853" stroke-width="8"/>
  <line x1="156" y1="138" x2="185" y2="167" stroke="#34A853" stroke-width="8" stroke-linecap="round"/>

  <g filter="url(#softShadow)">
    <rect x="209" y="153" width="96" height="70" rx="16" fill="#F3F4F6"/>
    <rect x="209" y="153" width="96" height="20" rx="16" fill="#4285F4"/>
    <rect x="228" y="178" width="38" height="6" rx="3" fill="#34A853"/>
    <rect x="228" y="193" width="58" height="6" rx="3" fill="#FBBC05"/>
    <rect x="239" y="208" width="36" height="6" rx="3" fill="#EA4335"/>
  </g>

  <text x="318" y="133"
        fill="#1F2937"
        font-family="Poppins, Montserrat, Arial, sans-serif"
        font-size="74"
        font-weight="500"
        letter-spacing="-1.5">
    Repère Local
  </text>

  <text x="320" y="201"
        fill="#6B7280"
        font-family="Poppins, Montserrat, Arial, sans-serif"
        font-size="54"
        font-weight="400"
        letter-spacing="1">
    STUDIO
  </text>

  <path d="M320 233
           C470 251 685 251 968 210"
        stroke="url(#lineGradient)"
        stroke-width="10"
        stroke-linecap="round"/>
</svg>
